<?xml version="1.0" standalone="no"?>
<!DOCTYPE svg PUBLIC "-//W3C//DTD SVG 20010904//EN"
 "http://www.w3.org/TR/2001/REC-SVG-20010904/DTD/svg10.dtd">
<svg version="1.0" xmlns="http://www.w3.org/2000/svg"
 width="316.000000pt" height="160.000000pt" viewBox="0 0 316.000000 160.000000"
 preserveAspectRatio="xMidYMid meet">
<metadata>
Created by potrace 1.16, written by Peter Selinger 2001-2019
</metadata>
<g transform="translate(0.000000,160.000000) scale(0.100000,-0.100000)"
fill="#000000" stroke="none">
<path d="M976 985 c-9 -25 -7 -338 3 -353 4 -8 19 -12 32 -10 l24 3 0 185 0
185 -26 3 c-17 2 -29 -3 -33 -13z"/>
<path d="M2311 886 c-8 -9 -11 -55 -9 -136 3 -104 6 -125 21 -134 12 -8 22 -8
35 0 14 9 17 30 20 134 3 126 -3 150 -38 150 -10 0 -23 -6 -29 -14z m54 -131
l0 -130 -25 0 -25 0 -3 119 c-1 66 0 126 3 134 3 7 15 12 27 10 23 -3 23 -6
23 -133z"/>
<path d="M1133 883 c-10 -3 -13 -40 -13 -134 l0 -130 28 3 27 3 3 124 c3 135
-3 152 -45 134z"/>
<path d="M1243 883 c-21 -8 -16 -27 41 -148 49 -103 57 -115 80 -115 23 0 32
12 81 116 30 65 55 123 55 129 0 15 -28 28 -41 19 -9 -5 -33 -53 -76 -153
l-15 -35 -46 94 c-46 93 -55 103 -79 93z"/>
<path d="M1600 873 c-63 -32 -87 -118 -54 -189 20 -43 59 -64 117 -64 67 0
107 17 107 46 0 28 -5 29 -55 8 -50 -20 -91 -11 -110 26 -8 16 -15 31 -15 35
0 3 40 5 89 5 50 0 93 4 96 10 10 17 -14 85 -39 109 -33 31 -92 37 -136 14z"/>
<path d="M481 697 c-19 -35 -11 -167 12 -181 12 -8 22 -8 35 0 13 9 18 28 20
94 3 85 -6 110 -38 110 -9 0 -22 -10 -29 -23z"/>
</g>
</svg>
