<?xml version="1.0" encoding="UTF-8"?>
<svg version="1.1" xmlns="http://www.w3.org/2000/svg" width="512" height="512">
<path d="M0 0 C0.97441615 -0.00352835 0.97441615 -0.00352835 1.96851748 -0.00712797 C4.14837884 -0.01379245 6.32818024 -0.01336052 8.50805092 -0.01294994 C10.08560006 -0.01625018 11.66314837 -0.01997608 13.2406956 -0.02409142 C17.57864527 -0.03410172 21.9165811 -0.03782667 26.25454068 -0.04048073 C30.93236264 -0.04438675 35.61017368 -0.05396499 40.28798866 -0.0626936 C51.58752057 -0.08245119 62.88705337 -0.09252402 74.18659824 -0.10142139 C79.51032916 -0.10580606 84.83405909 -0.11117246 90.15778923 -0.11641026 C107.86026172 -0.133423 125.5627336 -0.14791604 143.26521301 -0.155159 C147.85857964 -0.15706884 152.45194627 -0.15898917 157.04531288 -0.16094494 C158.18694679 -0.16142868 159.3285807 -0.16191242 160.50480957 -0.16241082 C178.98865491 -0.17070687 197.47243544 -0.19603641 215.9562525 -0.22852562 C234.94182287 -0.26162407 253.92736033 -0.27961034 272.91295969 -0.28280324 C283.56909111 -0.28496592 294.22512806 -0.29367897 304.88123131 -0.31926441 C313.95879744 -0.34100959 323.03624616 -0.34900312 332.11383538 -0.33929763 C336.74152914 -0.33476379 341.36898085 -0.33658557 345.99664116 -0.35605907 C350.24223419 -0.37376965 354.48741003 -0.37262961 358.73300798 -0.35716178 C360.26003832 -0.3547976 361.78709816 -0.35904674 363.31408362 -0.37099043 C383.07492179 -0.51584447 400.26061388 5.19686352 415.42959023 18.13422108 C416.66902382 19.0874828 416.66902382 19.0874828 417.93349648 20.06000233 C430.72608308 30.69046162 438.73408316 47.92769453 441.42959023 64.13422108 C441.52153634 66.32288412 441.56042339 68.51403995 441.5638113 70.70463085 C441.56616353 71.35424162 441.56851576 72.00385239 441.57093927 72.67314833 C441.57760375 74.8530097 441.57717182 77.0328111 441.57676125 79.21268177 C441.58006148 80.79023092 441.58378738 82.36777922 441.58790272 83.94532645 C441.59791302 88.28327612 441.60163797 92.62121195 441.60429204 96.95917153 C441.60819805 101.6369935 441.61777629 106.31480453 441.6265049 110.99261951 C441.64626249 122.29215143 441.65633533 133.59168423 441.66523269 144.89122909 C441.66961736 150.21496002 441.67498377 155.53868994 441.68022156 160.86242008 C441.6972343 178.56489258 441.71172734 196.26736445 441.7189703 213.96984386 C441.72088014 218.5632105 441.72280048 223.15657712 441.72475624 227.74994373 C441.72523998 228.89157764 441.72572372 230.03321155 441.72622212 231.20944043 C441.73451817 249.69328576 441.75984771 268.1770663 441.79233692 286.66088335 C441.82543537 305.64645372 441.84342164 324.63199118 441.84661454 343.61759055 C441.84877722 354.27372196 441.85749027 364.92975891 441.88307571 375.58586216 C441.90482089 384.66342829 441.91281442 393.74087701 441.90310893 402.81846623 C441.89857509 407.44615999 441.90039687 412.07361171 441.91987038 416.70127201 C441.93758095 420.94686505 441.93644092 425.19204088 441.92097308 429.43763883 C441.9186089 430.96466917 441.92285804 432.49172901 441.93480173 434.01871447 C442.07965577 453.77955264 436.36694779 470.96524473 423.42959023 486.13422108 C422.47632851 487.37365467 422.47632851 487.37365467 421.50380898 488.63812733 C410.87334969 501.43071393 393.63611677 509.43871401 377.42959023 512.13422108 C375.24092719 512.22616719 373.04977136 512.26505424 370.85918045 512.26844215 C369.8847643 512.2719705 369.8847643 512.2719705 368.89066297 512.27557012 C366.71080161 512.2822346 364.53100021 512.28180267 362.35112953 512.2813921 C360.77358039 512.28469233 359.19603208 512.28841823 357.61848485 512.29253358 C353.28053518 512.30254388 348.94259935 512.30626882 344.60463977 512.30892289 C339.92681781 512.3128289 335.24900677 512.32240714 330.57119179 512.33113575 C319.27165988 512.35089334 307.97212708 512.36096618 296.67258221 512.36986354 C291.34885129 512.37424822 286.02512136 512.37961462 280.70139122 512.38485241 C262.99891873 512.40186515 245.29644685 512.41635819 227.59396744 512.42360115 C223.00060081 512.42551099 218.40723418 512.42743133 213.81386757 512.42938709 C212.67223366 512.42987083 211.53059975 512.43035457 210.35437088 512.43085297 C191.87052554 512.43914902 173.38674501 512.46447856 154.90292795 512.49696777 C135.91735759 512.53006622 116.93182012 512.54805249 97.94622076 512.55124539 C87.29008934 512.55340807 76.63405239 512.56212112 65.97794914 512.58770657 C56.90038301 512.60945174 47.82293429 512.61744527 38.74534507 512.60773978 C34.11765131 512.60320595 29.4901996 512.60502772 24.86253929 512.62450123 C20.61694626 512.64221181 16.37177042 512.64107177 12.12617247 512.62560394 C10.59914213 512.62323975 9.07208229 512.6274889 7.54509683 512.63943259 C-12.21574134 512.78428662 -29.40143343 507.07157864 -44.57040977 494.13422108 C-45.39669884 493.49871326 -46.2229879 492.86320545 -47.07431602 492.20843983 C-59.86690263 481.57798054 -67.87490271 464.34074762 -70.57040977 448.13422108 C-70.66235589 445.94555804 -70.70124294 443.75440221 -70.70463085 441.5638113 C-70.70698308 440.91420053 -70.70933531 440.26458976 -70.71175882 439.59529382 C-70.7184233 437.41543246 -70.71799137 435.23563106 -70.7175808 433.05576038 C-70.72088103 431.47821124 -70.72460693 429.90066294 -70.72872227 428.32311571 C-70.73873257 423.98516604 -70.74245752 419.6472302 -70.74511158 415.30927062 C-70.7490176 410.63144866 -70.75859584 405.95363762 -70.76732445 401.27582264 C-70.78708204 389.97629073 -70.79715488 378.67675793 -70.80605224 367.37721306 C-70.81043691 362.05348214 -70.81580332 356.72975221 -70.82104111 351.40602207 C-70.83805385 333.70354958 -70.85254689 316.0010777 -70.85978985 298.29859829 C-70.86169969 293.70523166 -70.86362003 289.11186503 -70.86557579 284.51849842 C-70.86605953 283.37686451 -70.86654327 282.2352306 -70.86704167 281.05900173 C-70.87533772 262.57515639 -70.90066726 244.09137586 -70.93315647 225.6075588 C-70.96625492 206.62198844 -70.98424119 187.63645097 -70.98743409 168.65085161 C-70.98959677 157.9947202 -70.99830982 147.33868325 -71.02389526 136.68257999 C-71.04564044 127.60501387 -71.05363397 118.52756514 -71.04392848 109.44997592 C-71.03939464 104.82228216 -71.04121642 100.19483045 -71.06068993 95.56717014 C-71.0784005 91.32157711 -71.07726047 87.07640127 -71.06179263 82.83080332 C-71.05942845 81.30377298 -71.06367759 79.77671314 -71.07562128 78.24972768 C-71.22047532 58.48888952 -65.50776734 41.30319742 -52.57040977 26.13422108 C-51.93490196 25.30793201 -51.29939415 24.48164295 -50.64462852 23.63031483 C-38.89853374 9.49518382 -18.30849038 0.02831547 0 0 Z " fill="#006984" transform="translate(70.57040977478027,-0.13422107696533203)"/>
<path d="M0 0 C10.09959097 -0.69652352 20.21511589 1.94899373 29 7 C31.265625 9.05078125 31.265625 9.05078125 33.25 11.3125 C33.91515625 12.05113281 34.5803125 12.78976563 35.265625 13.55078125 C40.30619209 20.66887938 40.00604359 29.68504757 38.67919922 38.01367188 C35.93142773 51.91612691 29.98774172 64.36113604 23.625 76.9375 C23.05499268 78.07106934 22.48498535 79.20463867 21.89770508 80.37255859 C18.05674225 87.98445957 14.14725314 95.55002526 10 103 C10.60328125 102.79503906 11.2065625 102.59007812 11.828125 102.37890625 C12.62734375 102.10949219 13.4265625 101.84007812 14.25 101.5625 C15.03890625 101.29566406 15.8278125 101.02882813 16.640625 100.75390625 C26.34491537 97.65303201 37.36346094 97.83412507 46.63671875 102.2578125 C51.6589823 105.05854925 55.65182999 107.55651499 58 113 C58.97536687 117.25614633 58.82071316 120.49742545 56.70703125 124.3671875 C47.80082521 136.47310601 33.35015385 143.45932343 19 147 C16.15234375 147.1015625 16.15234375 147.1015625 14 147 C14.86625 146.05125 15.7325 145.1025 16.625 144.125 C26.00012434 133.09153999 31.65687227 119.67014735 31 105 C30.34 104.34 29.68 103.68 29 103 C26.0539938 103.16524073 24.50960532 103.50386982 22.375 105.58203125 C13.77135776 119.53850772 10.48198613 138.04272929 14.1875 154 C15.63383718 158.66960291 17.50801057 161.59754876 21 165 C26.26155872 167.63077936 34.30077771 166.64354755 39.8671875 165.31640625 C54.23028916 159.92465002 62.60719648 147.70973989 69.94140625 134.828125 C71 133 71 133 72 132 C73.66617115 131.95936168 75.33388095 131.957279 77 132 C74.29995061 143.37877956 66.61714378 153.22571931 56.76171875 159.4453125 C45.37965529 165.85275416 34.25106004 171.17935147 21 172 C19.64455078 172.09667969 19.64455078 172.09667969 18.26171875 172.1953125 C7.46174931 172.61554477 -3.22733497 169.44089719 -12 163 C-19.06328516 156.41999225 -22.51963031 150.53571464 -24 141 C-24.72703125 141.82242188 -25.4540625 142.64484375 -26.203125 143.4921875 C-48.84297454 168.77563507 -48.84297454 168.77563507 -62.84765625 170.3125 C-70.10675197 169.98578964 -77.30337131 167.46233532 -82.6640625 162.44140625 C-89.85883119 154.00543477 -89.38717246 145.63424567 -89 135 C-88.59597331 130.20391889 -87.98396084 125.45284873 -87.3125 120.6875 C-87.13750977 119.40601074 -86.96251953 118.12452148 -86.78222656 116.80419922 C-85.0324835 104.43232484 -82.65432654 92.20662513 -80 80 C-80.3403125 80.94617188 -80.680625 81.89234375 -81.03125 82.8671875 C-84.34048362 91.94287983 -88.02233748 100.7815581 -92.01171875 109.578125 C-93.26541516 112.34333199 -94.48084225 115.11763362 -95.64453125 117.921875 C-113.59918386 160.94508105 -113.59918386 160.94508105 -127.8828125 168.27734375 C-133.76680323 170.28571697 -139.76872291 170.59500723 -145.75 169 C-151.65490641 165.36621144 -157.63321843 161.07564083 -160.4375 154.515625 C-162.88987422 143.54806252 -159.202187 131.63393343 -156.5078125 121.02734375 C-154.77804987 114.21654584 -153.27176371 107.35969618 -151.75 100.5 C-149.04407573 88.40586615 -146.18807918 76.35228346 -143.25 64.3125 C-143.05950073 63.53181152 -142.86900146 62.75112305 -142.67272949 61.94677734 C-140.47669986 52.95744904 -138.25585578 43.97452452 -136 35 C-163.30122019 48.15455832 -195.19263273 64.91417067 -208.84765625 93.5859375 C-211.07734715 100.19186919 -211.52432445 107.07810057 -212 114 C-218.61964619 113.23912113 -222.27732213 110.55370907 -227 106 C-229.26642197 103.13689793 -231.20768749 100.17915105 -233 97 C-233.37511719 96.37996094 -233.75023437 95.75992188 -234.13671875 95.12109375 C-236.26680848 89.88743437 -235.77811341 83.09156468 -234.41796875 77.6875 C-222.86676312 51.52586534 -178.88412833 36.47951486 -155 26 C-153.99340332 25.5580127 -152.98680664 25.11602539 -151.94970703 24.66064453 C-149.22569482 23.47923974 -146.4924055 22.3254643 -143.75 21.1875 C-142.97100342 20.85572754 -142.19200684 20.52395508 -141.3894043 20.18212891 C-136.65873966 18.28527978 -132.1060612 16.86956531 -127 18 C-123.34919291 19.59718267 -120.04751674 21.61744325 -116.6875 23.75 C-115.79482422 24.28882813 -114.90214844 24.82765625 -113.98242188 25.3828125 C-106.4198392 30.04896584 -106.4198392 30.04896584 -104 34 C-104.09747138 38.5811549 -105.46364244 42.55581637 -106.84765625 46.90625 C-108.96470526 53.73293495 -110.69996074 60.61644329 -112.375 67.5625 C-114.38293835 75.75852947 -116.47637317 83.88483622 -119 91.9375 C-122.70341071 103.78866501 -125.44342675 115.88498845 -128.27978516 127.96606445 C-128.87703707 130.48201343 -129.49487605 132.99025332 -130.1328125 135.49609375 C-132.32735773 144.36324271 -133.32356223 152.86835488 -133 162 C-123.12741268 158.147283 -118.55735589 149.01597554 -114.0625 140 C-113.54381348 138.98107666 -113.02512695 137.96215332 -112.49072266 136.91235352 C-111.45525574 134.87404927 -110.42484297 132.83316832 -109.39990234 130.78955078 C-108.2129747 128.42438943 -107.01217912 126.06752093 -105.80078125 123.71484375 C-92.52011086 97.78402946 -81.80742794 70.75447313 -72.24609375 43.26171875 C-69.80815912 36.88029112 -69.80815912 36.88029112 -68 34 C-65.04050028 32.94827696 -63.56380364 32.77267948 -60.62817383 33.95629883 C-59.82919678 34.45154053 -59.03021973 34.94678223 -58.20703125 35.45703125 C-57.32982422 35.99263672 -56.45261719 36.52824219 -55.54882812 37.08007812 C-54.64583984 37.65177734 -53.74285156 38.22347656 -52.8125 38.8125 C-51.89791016 39.37259766 -50.98332031 39.93269531 -50.04101562 40.50976562 C-43.36860521 44.63139479 -43.36860521 44.63139479 -41 47 C-39.8190636 54.82315047 -41.9583939 62.71789706 -43.66796875 70.30078125 C-44.09133797 72.24561074 -44.5146996 74.19044191 -44.93768024 76.13535595 C-45.53050271 78.84948231 -46.13254812 81.56152658 -46.73486328 84.27355957 C-50.3841709 100.71217478 -53.97815101 117.1490364 -56.92578125 133.73046875 C-57.24412178 135.47062004 -57.24412178 135.47062004 -57.56889343 137.2459259 C-58.828193 144.56445332 -59.25072676 151.57845656 -59 159 C-32.45585735 149.0013095 -17.65939469 106.91857652 -6.79443359 83.07910156 C0.8476181 65.95754284 6.379459 48.68154532 6.3125 29.8125 C6.32861328 28.89275391 6.34472656 27.97300781 6.36132812 27.02539062 C6.36648328 19.75146395 5.14760206 13.49979595 1.3125 7.25 C-0.21838153 4.62563166 -0.25614065 2.98830759 0 0 Z " fill="#FBFCFD" transform="translate(302,163)"/>
<path d="M0 0 C1.2065625 0.0309375 1.2065625 0.0309375 2.4375 0.0625 C-0.25992433 11.4302168 -7.93115385 21.26695029 -17.76953125 27.4921875 C-29.34243637 33.99891178 -29.34243637 33.99891178 -34.5625 36.0625 C-35.5525 35.7325 -36.5425 35.4025 -37.5625 35.0625 C-34.2173167 32.8323778 -30.75958176 31.19567331 -27.1328125 29.4765625 C-21.83037035 26.55941347 -18.22726952 22.72923143 -14.625 17.9375 C-14.1926001 17.36999023 -13.7602002 16.80248047 -13.31469727 16.21777344 C-10.10944586 11.94729837 -7.26446535 7.53337398 -4.62109375 2.890625 C-2.98947045 0.07291391 -2.98947045 0.07291391 0 0 Z " fill="#EBF3F5" transform="translate(376.5625,294.9375)"/>
<path d="M0 0 C0.99 0.33 1.98 0.66 3 1 C-0.7559214 4.42931954 -5.23466745 5.56429083 -10 7 C-10.33 6.34 -10.66 5.68 -11 5 C-9.93458984 4.58427734 -9.93458984 4.58427734 -8.84765625 4.16015625 C-7.46900391 3.61681641 -7.46900391 3.61681641 -6.0625 3.0625 C-5.14597656 2.70285156 -4.22945313 2.34320313 -3.28515625 1.97265625 C-1.07581467 1.2003782 -1.07581467 1.2003782 0 0 Z " fill="#C4DCE3" transform="translate(350,324)"/>
</svg>
